<svg width="4449" height="598" viewBox="0 0 4449 598" fill="none" xmlns="http://www.w3.org/2000/svg">
<path d="M70.3438 305C49.6771 256 28.1771 209 5.84375 164L0.34375 154V149H107.344L118.844 184.5L116.844 187.5C108.51 185.833 99.3438 184.167 89.3438 182.5C79.6771 180.833 72.0104 180 66.3438 180L179.844 459L256.844 270C259.51 263.667 262.344 257 265.344 250C268.344 242.667 271.344 235.167 274.344 227.5C282.344 208.5 288.51 192.667 292.844 180C288.844 179.667 283.01 180.167 275.344 181.5C268.01 182.5 261.01 183.667 254.344 185L243.344 187L241.344 184L253.344 149H350.344V155C342.01 169.667 334.177 185.167 326.844 201.5C319.844 217.833 311.01 239 300.344 265C298.677 268.667 297.01 272.5 295.344 276.5C294.01 280.5 292.51 284.5 290.844 288.5L201.844 499H149.844L70.3438 305ZM412.813 494C414.146 466.333 414.813 439.667 414.813 414V277.5C408.813 277.5 397.479 279.5 380.813 283.5L374.313 285L372.813 282L382.313 249H420.813C426.146 249 431.979 248.833 438.313 248.5C444.979 248.167 450.146 247.667 453.813 247L454.313 251C452.646 276.333 451.813 304 451.813 334V470.5C456.479 470.5 466.979 468.667 483.313 465L491.813 463L493.313 466L483.812 499H412.813V494ZM458.813 126.5L431.313 213.5H426.313L398.813 126.5H458.813ZM559.25 494C560.583 466.333 561.25 439.667 561.25 414V177.5C555.25 177.5 543.917 179.5 527.25 183.5L521.25 185L519.75 182L528.75 149H567.25C573.583 149 579.917 148.833 586.25 148.5C592.583 148.167 597.25 147.667 600.25 147L600.75 151C600.75 161 600.417 174.333 599.75 191C599.083 209.667 598.75 224 598.75 234V357.5H647.75L687.25 311C689.583 308 691.917 305.167 694.25 302.5C696.583 299.5 698.917 296.5 701.25 293.5C703.583 290.833 705.917 288.167 708.25 285.5C710.583 282.833 712.75 280.167 714.75 277.5C710.75 278.167 706.583 279 702.25 280C698.25 280.667 694.25 281.333 690.25 282C685.583 283 681.25 284 677.25 285L675.75 282.5L685.25 249H776.25V254C772.25 258.333 767.917 262.833 763.25 267.5C755.917 275.167 748.75 282.833 741.75 290.5C735.083 298.167 728.083 306.333 720.75 315L677.25 367.5L737.25 441C739.583 444 743.083 448 747.75 453C761.083 467.333 774.583 480.833 788.25 493.5V499H685.25L675.25 466L677.25 463.5C679.917 464.167 682.917 465 686.25 466C689.917 466.667 693.583 467.333 697.25 468C698.583 468.333 705.417 469.5 717.75 471.5L648.25 390H598.75V414C598.75 444.667 599.25 471.333 600.25 494V499H559.25V494ZM972.383 511.5L984.883 480.5C983.216 481.833 981.383 483.167 979.383 484.5C977.383 485.833 975.383 487.167 973.383 488.5C966.716 493.167 959.883 496.833 952.883 499.5C946.216 502.5 938.883 504 930.883 504C908.549 504 891.383 497.5 879.383 484.5C867.716 471.5 861.883 453 861.883 429V279H840.383C837.383 279 832.216 279.5 824.883 280.5C817.883 281.5 811.383 282.667 805.383 284L800.883 285L799.383 282L808.383 249L841.383 249.5C847.049 249.5 851.716 248.667 855.383 247C859.383 245.333 862.216 243 863.883 240C865.883 236.667 866.883 232.5 866.883 227.5V189C872.883 189 878.549 189 883.883 189C889.549 188.667 894.716 188.333 899.383 188V249H910.383C922.049 249 940.049 248.333 964.383 247C988.716 245.667 1003.88 244.5 1009.88 243.5L1011.88 246.5L1002.38 279H899.383V359.5C899.383 367.833 899.216 375.667 898.883 383C898.549 390 898.216 396.667 897.883 403C897.549 407.333 897.383 411.5 897.383 415.5C897.383 419.167 897.383 422.833 897.383 426.5C897.383 441.5 900.883 453 907.883 461C914.883 468.667 924.383 472.5 936.383 472.5C944.049 472.5 951.883 470.167 959.883 465.5C967.883 460.833 975.216 455 981.883 448C988.549 441 993.216 434 995.883 427L998.883 420L1026.38 426L1008.38 513.5H974.383L972.383 511.5ZM1190.56 504C1165.89 504 1143.39 498.333 1123.06 487C1103.06 475.667 1087.23 460.167 1075.56 440.5C1063.89 420.5 1058.06 398.333 1058.06 374C1058.06 349.333 1063.73 327.167 1075.06 307.5C1086.73 287.833 1102.56 272.333 1122.56 261C1142.89 249.667 1165.56 244 1190.56 244C1215.89 244 1238.56 249.667 1258.56 261C1278.56 272.333 1294.23 287.833 1305.56 307.5C1317.23 327.167 1323.06 349.333 1323.06 374C1323.06 398.333 1317.23 420.5 1305.56 440.5C1294.23 460.167 1278.39 475.667 1258.06 487C1237.73 498.333 1215.23 504 1190.56 504ZM1190.56 471C1208.23 471 1224.06 466.833 1238.06 458.5C1252.39 449.833 1263.56 438.167 1271.56 423.5C1279.89 408.5 1284.06 392 1284.06 374C1284.06 356 1279.89 339.667 1271.56 325C1263.56 310 1252.39 298.333 1238.06 290C1224.06 281.333 1208.23 277 1190.56 277C1173.23 277 1157.39 281.333 1143.06 290C1129.06 298.333 1117.89 310 1109.56 325C1101.56 339.667 1097.56 356 1097.56 374C1097.56 392 1101.56 408.5 1109.56 423.5C1117.89 438.167 1129.06 449.833 1143.06 458.5C1157.39 466.833 1173.23 471 1190.56 471ZM1597.63 332.5L1567.13 343.5C1560.8 328.833 1553.96 316.667 1546.63 307C1539.63 297.333 1531.8 290.333 1523.13 286C1514.8 281.333 1505.3 279 1494.63 279C1484.63 279 1475.3 282.167 1466.63 288.5C1458.3 294.5 1451.46 303.167 1446.13 314.5C1441.13 325.833 1438.63 338.667 1438.63 353V470.5C1443.63 470.5 1451.8 469.667 1463.13 468C1474.8 466.333 1484.63 464.667 1492.63 463L1494.13 466L1484.63 499H1399.63V494C1400.96 466.333 1401.63 439.667 1401.63 414V277.5C1395.63 277.5 1384.3 279.5 1367.63 283.5L1361.13 285L1359.63 282L1369.13 249H1403.13C1408.13 249 1413.96 248.833 1420.63 248.5C1427.63 248.167 1432.63 247.667 1435.63 247L1436.63 251L1436.13 263.5C1435.8 267.5 1435.46 271.667 1435.13 276C1435.13 280 1435.13 284 1435.13 288C1440.46 274.667 1449.13 264.167 1461.13 256.5C1473.46 248.5 1485.46 244.5 1497.13 244.5C1506.13 244.5 1513.8 246.167 1520.13 249.5C1526.8 252.5 1532.96 256.5 1538.63 261.5C1540.3 262.833 1541.8 264.167 1543.13 265.5C1544.8 266.833 1546.3 268 1547.63 269L1534.63 236L1536.63 233.5H1571.13L1597.63 332.5ZM1660.86 494C1662.19 466.333 1662.86 439.667 1662.86 414V277.5C1656.86 277.5 1645.53 279.5 1628.86 283.5L1622.36 285L1620.86 282L1630.36 249H1668.86C1674.19 249 1680.03 248.833 1686.36 248.5C1693.03 248.167 1698.19 247.667 1701.86 247L1702.36 251C1700.69 276.333 1699.86 304 1699.86 334V470.5C1704.53 470.5 1715.03 468.667 1731.36 465L1739.86 463L1741.36 466L1731.86 499H1660.86V494ZM1706.86 126.5L1679.36 213.5H1674.36L1646.86 126.5H1706.86ZM1809.3 494C1810.63 466.333 1811.3 439.667 1811.3 414V277.5C1805.3 277.5 1793.96 279.5 1777.3 283.5L1770.8 285L1769.3 282L1778.8 249H1817.3C1822.63 249 1828.46 248.833 1834.8 248.5C1841.46 248.167 1846.63 247.667 1850.3 247L1850.8 251C1849.13 276.333 1848.3 304 1848.3 334V470.5C1852.96 470.5 1863.46 468.667 1879.8 465L1888.3 463L1889.8 466L1880.3 499H1809.3V494ZM1855.3 126.5L1827.8 213.5H1822.8L1795.3 126.5H1855.3ZM2008.73 504.5C1981.73 504.5 1960.9 498.333 1946.23 486C1931.9 473.333 1924.73 457 1924.73 437C1924.73 417 1930.9 401.5 1943.23 390.5C1955.57 379.5 1970.4 371.833 1987.73 367.5C2005.07 363.167 2025.9 360 2050.23 358C2064.57 356.667 2076.23 355.333 2085.23 354C2094.23 352.333 2101.4 349.667 2106.73 346C2112.4 342 2115.23 336.833 2115.23 330.5C2115.23 313.5 2109.9 300 2099.23 290C2088.57 280 2074.4 275 2056.73 275C2043.07 275 2030.57 277.833 2019.23 283.5C2007.9 288.833 1998.07 296.5 1989.73 306.5C1981.4 316.5 1974.57 328.167 1969.23 341.5L1968.73 342.5L1941.73 336.5L1968.73 233.5H2002.73L2004.73 236L1991.73 269.5C1996.07 267.5 2000.57 264.833 2005.23 261.5C2012.9 256.5 2021.07 252.333 2029.73 249C2038.73 245.667 2049.57 244 2062.23 244C2088.57 244 2109.57 253 2125.23 271C2141.23 288.667 2149.23 312.5 2149.23 342.5V470.5C2153.23 470.5 2164.57 468.5 2183.23 464.5C2184.23 464.167 2185.23 464 2186.23 464C2187.23 463.667 2188.23 463.333 2189.23 463L2190.73 466L2181.23 499H2114.23V494C2114.57 490 2114.73 485.667 2114.73 481C2115.07 476 2115.23 471 2115.23 466C2115.23 462.667 2115.23 459.667 2115.23 457C2115.57 454 2115.73 451.167 2115.73 448.5C2107.07 465.5 2092.9 479.167 2073.23 489.5C2053.57 499.5 2032.07 504.5 2008.73 504.5ZM2014.23 473C2032.57 473 2049.57 469 2065.23 461C2080.9 453 2093.07 442.333 2101.73 429C2110.73 415.667 2115.23 401.167 2115.23 385.5V370.5C2109.23 374.833 2100.4 378.5 2088.73 381.5C2077.07 384.167 2064.57 386 2051.23 387C2021.9 388.667 1999.73 393.167 1984.73 400.5C1970.07 407.5 1962.73 419 1962.73 435C1962.73 447.333 1967.23 456.833 1976.23 463.5C1985.57 469.833 1998.23 473 2014.23 473ZM2382.63 494C2385.63 478.333 2388.13 459.5 2390.13 437.5C2392.47 415.167 2393.63 393.5 2393.63 372.5V184C2389.97 183 2385.8 182.333 2381.13 182C2376.47 181.333 2371.63 180.833 2366.63 180.5C2363.97 180.5 2361.3 180.5 2358.63 180.5C2355.97 180.5 2353.13 180.5 2350.13 180.5L2359.63 147C2372.63 147.333 2386.13 147.833 2400.13 148.5C2414.47 148.833 2428.13 149 2441.13 149H2460.13C2462.47 155.333 2464.8 161.667 2467.13 168C2469.8 174 2472.47 180.5 2475.13 187.5C2483.13 207.167 2490.3 223.833 2496.63 237.5L2580.13 414.5L2704.13 149H2766.13V154C2765.8 163.667 2765.3 175.333 2764.63 189C2763.63 205.667 2763.13 220.667 2763.13 234V468C2767.47 468 2774.63 467.167 2784.63 465.5C2794.63 463.5 2803.47 461.833 2811.13 460.5L2813.13 463.5L2801.63 499H2717.13V494C2718.8 472.333 2719.63 445.667 2719.63 414V199.5L2580.63 499H2572.13L2434.63 207.5C2433.97 205.833 2432.97 204.167 2431.63 202.5C2430.63 200.833 2429.3 199.333 2427.63 198V468C2432.63 468 2440.13 467.5 2450.13 466.5C2460.47 465.167 2468.8 463.833 2475.13 462.5L2477.13 465.5L2465.63 499H2382.63V494ZM2988.99 504C2966.99 504 2947.99 499.167 2931.99 489.5C2915.99 479.833 2903.66 466 2894.99 448C2886.33 430 2881.99 408.833 2881.99 384.5V277.5C2875.99 277.5 2864.83 279.5 2848.49 283.5L2841.99 285L2839.99 282L2849.99 249H2888.49C2893.16 249 2898.83 248.833 2905.49 248.5C2912.49 248.167 2917.66 247.667 2920.99 247V251C2919.99 273.667 2919.49 301.333 2919.49 334V383.5C2919.49 409.833 2926.33 430.833 2939.99 446.5C2953.66 461.833 2972.16 469.5 2995.49 469.5C3009.49 469.5 3022.33 465.667 3033.99 458C3045.99 450.333 3055.33 439.833 3061.99 426.5C3068.66 412.833 3071.99 397.833 3071.99 381.5V328C3071.99 302.333 3071.16 277.5 3069.49 253.5V249H3078.49C3083.49 249 3089.33 248.833 3095.99 248.5C3102.99 248.167 3107.99 247.667 3110.99 247L3111.49 251C3110.16 277.333 3109.49 305 3109.49 334V470.5C3115.49 470.5 3126.33 468.5 3141.99 464.5C3143.33 464.167 3144.49 464 3145.49 464C3146.83 463.667 3148.16 463.333 3149.49 463L3150.99 466L3141.49 499H3074.49V494C3074.83 491 3074.99 487.833 3074.99 484.5C3074.99 481.167 3075.16 477.667 3075.49 474C3075.49 470.667 3075.49 467.333 3075.49 464C3075.83 460.667 3075.99 457.333 3075.99 454C3067.33 469.333 3055.33 481.5 3039.99 490.5C3024.99 499.5 3007.99 504 2988.99 504ZM3307.98 504C3284.98 504 3264.31 498.333 3245.98 487C3227.64 475.667 3213.14 460.167 3202.48 440.5C3191.81 420.5 3186.48 398.333 3186.48 374C3186.48 349.667 3191.81 327.667 3202.48 308C3213.14 288 3227.64 272.333 3245.98 261C3264.31 249.667 3284.98 244 3307.98 244C3326.98 244 3343.98 248.333 3358.98 257C3374.31 265.333 3386.48 277 3395.48 292V177.5C3388.48 177.5 3375.48 179.5 3356.48 183.5C3353.48 183.833 3350.98 184.333 3348.98 185L3346.98 182L3358.48 149H3401.48C3407.14 149 3412.98 148.833 3418.98 148.5C3425.31 148.167 3430.48 147.667 3434.48 147L3434.98 151C3434.64 157.333 3434.31 163.833 3433.98 170.5C3433.98 177.167 3433.98 184 3433.98 191C3433.64 198 3433.31 205.167 3432.98 212.5C3432.98 219.833 3432.98 227 3432.98 234V470.5C3438.98 470.5 3449.81 468.5 3465.48 464.5C3466.81 464.167 3467.98 464 3468.98 464C3470.31 463.667 3471.64 463.333 3472.98 463L3474.48 466L3464.98 499H3397.48V494C3397.81 490.667 3397.98 487.167 3397.98 483.5C3398.31 479.833 3398.64 476.333 3398.98 473C3398.98 469.667 3398.98 466.333 3398.98 463C3399.31 459.333 3399.48 455.833 3399.48 452.5C3390.14 468.5 3377.48 481.167 3361.48 490.5C3345.48 499.5 3327.64 504 3307.98 504ZM3311.48 471C3327.48 471 3341.98 466.833 3354.98 458.5C3367.98 449.833 3378.14 438.167 3385.48 423.5C3393.14 408.5 3396.98 392 3396.98 374C3396.98 356 3393.14 339.667 3385.48 325C3378.14 310 3367.98 298.333 3354.98 290C3341.98 281.333 3327.48 277 3311.48 277C3295.48 277 3280.81 281.333 3267.48 290C3254.48 298.333 3244.31 310 3236.98 325C3229.64 339.667 3225.98 356 3225.98 374C3225.98 392 3229.64 408.5 3236.98 423.5C3244.31 438.167 3254.48 449.833 3267.48 458.5C3280.81 466.833 3295.48 471 3311.48 471ZM3740.21 332.5L3709.71 343.5C3703.37 328.833 3696.54 316.667 3689.21 307C3682.21 297.333 3674.37 290.333 3665.71 286C3657.37 281.333 3647.87 279 3637.21 279C3627.21 279 3617.87 282.167 3609.21 288.5C3600.87 294.5 3594.04 303.167 3588.71 314.5C3583.71 325.833 3581.21 338.667 3581.21 353V470.5C3586.21 470.5 3594.37 469.667 3605.71 468C3617.37 466.333 3627.21 464.667 3635.21 463L3636.71 466L3627.21 499H3542.21V494C3543.54 466.333 3544.21 439.667 3544.21 414V277.5C3538.21 277.5 3526.87 279.5 3510.21 283.5L3503.71 285L3502.21 282L3511.71 249H3545.71C3550.71 249 3556.54 248.833 3563.21 248.5C3570.21 248.167 3575.21 247.667 3578.21 247L3579.21 251L3578.71 263.5C3578.37 267.5 3578.04 271.667 3577.71 276C3577.71 280 3577.71 284 3577.71 288C3583.04 274.667 3591.71 264.167 3603.71 256.5C3616.04 248.5 3628.04 244.5 3639.71 244.5C3648.71 244.5 3656.37 246.167 3662.71 249.5C3669.37 252.5 3675.54 256.5 3681.21 261.5C3682.87 262.833 3684.37 264.167 3685.71 265.5C3687.37 266.833 3688.87 268 3690.21 269L3677.21 236L3679.21 233.5H3713.71L3740.21 332.5ZM3894.17 504C3869.51 504 3847.01 498.333 3826.67 487C3806.67 475.667 3790.84 460.167 3779.17 440.5C3767.51 420.5 3761.67 398.333 3761.67 374C3761.67 349.333 3767.34 327.167 3778.67 307.5C3790.34 287.833 3806.17 272.333 3826.17 261C3846.51 249.667 3869.17 244 3894.17 244C3919.51 244 3942.17 249.667 3962.17 261C3982.17 272.333 3997.84 287.833 4009.17 307.5C4020.84 327.167 4026.67 349.333 4026.67 374C4026.67 398.333 4020.84 420.5 4009.17 440.5C3997.84 460.167 3982.01 475.667 3961.67 487C3941.34 498.333 3918.84 504 3894.17 504ZM3894.17 471C3911.84 471 3927.67 466.833 3941.67 458.5C3956.01 449.833 3967.17 438.167 3975.17 423.5C3983.51 408.5 3987.67 392 3987.67 374C3987.67 356 3983.51 339.667 3975.17 325C3967.17 310 3956.01 298.333 3941.67 290C3927.67 281.333 3911.84 277 3894.17 277C3876.84 277 3861.01 281.333 3846.67 290C3832.67 298.333 3821.51 310 3813.17 325C3805.17 339.667 3801.17 356 3801.17 374C3801.17 392 3805.17 408.5 3813.17 423.5C3821.51 438.167 3832.67 449.833 3846.67 458.5C3861.01 466.833 3876.84 471 3894.17 471ZM4437.44 253C4430.44 268.333 4422.94 286.167 4414.94 306.5C4407.27 326.5 4399.77 346.5 4392.44 366.5L4345.44 499H4305.94L4238.94 348.5L4178.44 499H4138.94L4089.94 361C4085.94 349.333 4080.94 336.167 4074.94 321.5C4069.27 306.833 4063.61 292.5 4057.94 278.5C4056.27 274.167 4054.44 269.833 4052.44 265.5C4050.77 260.833 4049.11 256.5 4047.44 252.5V249H4093.44C4095.11 255.333 4096.94 261.833 4098.94 268.5C4100.94 275.167 4103.11 281.833 4105.44 288.5C4114.11 316.5 4121.27 338.5 4126.94 354.5L4163.44 460L4221.94 313.5L4193.94 253V249H4277.44L4285.94 279L4284.44 282C4278.77 281 4272.27 280 4264.94 279C4257.94 278 4251.94 277.167 4246.94 276.5L4326.44 462.5L4366.94 343.5C4368.94 338.167 4370.77 332.667 4372.44 327C4374.11 321.333 4375.77 315.833 4377.44 310.5C4379.44 304.833 4381.27 299.333 4382.94 294C4384.61 288.333 4386.27 282.833 4387.94 277.5C4382.94 277.5 4375.77 278.333 4366.44 280C4357.11 281.667 4350.11 283.333 4345.44 285L4343.94 282.5L4353.44 249H4437.44V253Z" fill="white"/>
</svg>
